<svg version="1.2" xmlns="http://www.w3.org/2000/svg" viewBox="0 0 486 148" width="486" height="148">
	<style>
		.s0 { fill: #ffffff } 
	</style>
	<g id="Layer 1">
		<path class="s0" d="m25 27l0.23 1.67 0.15 0.49 0.27 1 0.76 1.86c0.46 1.02 1.03 1.99 1.55 2.98l0.97 2 0.65 2 0.2 1 0.11 1c0.11 0.99 0.1 2 0.11 3v4 11 36 11l0.01 5 0.08 1.97 0.09 0.98 0.3 1.89 0.09 0.49 0.43 1.67h22l0.27-1.67 0.03-0.49 0.05-1-0.25-1.87c-0.48-1.83-1.61-3.39-2.6-4.97l-1.27-2-1.23-2-3-5-4.8-8q-1.79-2.97-3.47-6l-1.05-2-0.47-1c-0.4-0.96-0.78-1.96-0.94-3l-0.14-1-0.08-1-0.05-3v-5-24l1.26 1.67 0.31 0.49 0.68 1 1.8 2.84 2.53 4 2.47 4 2.53 4 2.47 4 2.53 4 1.84 3 3.16 5 1.84 3 2.53 4 2.47 4 1.9 3 1.27 1.98 0.64 0.96 1.37 1.72 0.76 0.68 1.64 0.74h0.83l0.8-0.26 0.74-0.48 1.31-1.49 0.59-0.91 1.15-1.94 3.43-6 2.84-5 2.62-5 2.83-5 2.17-4 1.11-2 2.27-4 2.17-4 2.82-5q0.73-1.39 1.34-2.84l0.55-1.49 0.43-1.67 0.58 1.67 0.06 0.49 0.2 1 0.13 1.86 0.03 4.98v9 31 9l0.01 4 0.08 1.97 0.2 1.87 0.19 1 0.52 2.16h25l0.43-1.67 0.09-0.49 0.3-1.89 0.14-1.95 0.04-3v-4-12-44-10-3l-0.02-2-0.09-1.98-0.12-0.98-0.51-1.8-0.96-1.44-0.64-0.53-1.48-0.61-0.8-0.11-0.82-0.02-1.73 0.14-0.92 0.1-0.95 0.08q-1.48 0.1-2.96 0.06l-3-0.15-0.98 0.01-0.98 0.09-1.83 0.55-1.6 1.12-0.71 0.75-1.28 1.77c-0.63 0.96-1.2 1.96-1.76 2.95l-2.17 4-2.83 5-2.72 5-2.83 5-1.57 3-1.6 3-2.28 4-2.72 5-1.61 2.84-0.52 1-0.28 0.49-0.73 1.67-1.04-1.67-0.28-0.49-1.14-1.88-3.12-4.96-1.84-3-2.53-4-3.1-5-3.9-6-3.74-6-2.62-4-1.88-3c-0.83-1.3-1.6-2.67-2.6-3.85-0.69-0.83-1.45-1.58-2.4-2.12l-1.85-0.71-0.97-0.17-1.99-0.13-1-0.02h-3-4c-1.33 0-2.67-0.01-4-0.09-1.66-0.09-3.31-0.34-4.98-0.34-0.96 0-1.91 0.1-2.86 0.19l-0.49 0.07zm134 0v2h42v-2zm171 8.44q-1.51 0.25-3 0.57c-1.34 0.28-2.68 0.54-4 0.91l-2 0.6q-1.51 0.51-3 1.11c-1.73 0.71-3.42 1.5-5 2.51-2.9 1.84-5.47 4.23-7.67 6.87-2.01 2.4-3.67 5.09-4.85 7.99-1.05 2.57-1.69 5.3-2.27 8-0.42 1.98-0.84 3.98-1.04 6-0.13 1.33-0.15 2.67-0.16 4l-0.01 4c0 2.33-0.06 4.68 0.17 7 0.17 1.68 0.49 3.35 0.85 5 0.82 3.8 2.05 7.52 3.79 11 1.23 2.46 2.68 4.86 4.52 6.91 0.83 0.92 1.73 1.81 2.71 2.56l1.97 1.43 1.99 1.23q1.97 1.11 4 2.09c0.99 0.47 1.98 0.94 3 1.32l2 0.71 1 0.31c1.32 0.38 2.65 0.73 4 0.98l2 0.3 3 0.32 4 0.56q1.5 0.18 3 0.24l2 0.04 3-0.04 2-0.13c1.34-0.11 2.67-0.37 4-0.55 1.66-0.21 3.34-0.32 5-0.57 2.04-0.32 4.03-0.84 6-1.43q2.03-0.61 4-1.37l2-0.9 2-1.1 2-1.27c1.01-0.68 2.02-1.38 2.96-2.16q1.46-1.18 2.71-2.57c1.85-2.06 3.27-4.46 4.55-6.91 0.84-1.62 1.62-3.27 2.23-5 0.69-1.95 1.14-3.97 1.55-6 0.34-1.65 0.66-3.32 0.83-5 0.13-1.33 0.16-2.66 0.17-4v-4-4c-0.01-1.33-0.04-2.67-0.17-4-0.17-1.68-0.49-3.35-0.84-5q-0.32-1.51-0.73-3-0.44-1.51-0.96-3-0.7-2.05-1.68-4-1.33-2.65-3.15-5l-1.65-1.98-0.91-0.98-0.95-0.94-1.96-1.77-2-1.54-1-0.68-1-0.63-2-1.1c-3.15-1.58-6.57-2.44-10-3.17-1.98-0.42-3.98-0.84-6-1.04-1.66-0.16-3.33-0.16-5-0.17h-4-5c-1.33 0.01-2.67 0-4 0.09q-1.51 0.11-3 0.35zm-191 82.56l1.67 0.43 0.49 0.09 1.89 0.3 0.98 0.09 1.97 0.08 5 0.01h4l2-0.04 1.96-0.19 0.93-0.2 0.87-0.31 0.76-0.44 1.09-1.25 0.27-0.8c0.21-0.92 0-1.89-0.23-2.78l-0.68-1.99-0.83-2-2.28-5c-0.7-1.6-1.36-3.22-2.02-4.84l-0.21-0.49-0.63-1.67h35l0.23 1.67 0.41 1.49 0.71 1.87 1.87 3.97q0.92 1.99 1.78 4l1.33 2.99 0.5 0.97 0.53 0.93 0.61 0.88 0.67 0.8 1.57 1.25c1.16 0.69 2.48 0.94 3.8 1.07 1.32 0.14 2.66 0.1 3.99 0.11h4l4-0.04 1.96-0.14 1.88-0.3 0.49-0.09 1.67-0.43-0.04-1.67-0.06-0.49-0.11-1-0.43-1.86c-0.3-1.03-0.72-2.01-1.15-2.98l-1.9-4-2.17-5-2.28-5-2.17-5-2.38-5-2.17-5-2.28-5-1.72-4-2.28-5-1.72-4-2.28-5-1.28-3-1.35-3-1.8-4-1.29-3-0.92-2-0.49-0.99c-0.98-1.88-2.06-3.87-3.94-4.98l-1.83-0.71-0.97-0.17-0.99-0.09-1-0.03-1-0.01-1.99 0.09-1.97 0.33-0.93 0.3-0.89 0.44-1.57 1.26-1.23 1.67-0.98 1.91-1.75 3.98-2.38 5-1.73 4-0.88 2-1.39 3-2.17 5-1.83 4-2.62 6-2.38 5-2.17 5-2.28 5-2.16 5-1.84 4-2.17 5c-1.35 2.96-2.98 5.84-3.9 8.98l-0.46 1.86-0.15 1-0.08 0.49zm79-54l2.16 0.21 0.99-0.1 1.79-0.8 1.76-1.47 0.84-0.9 1.58-1.94 2.26-3 3.05-4 3.15-4 2.31-2.99 1.55-1.95 1.58-1.74 1.35-1.23 1.63-1.09v59 9 3l0.02 2 0.13 1.98 0.17 0.96 0.29 0.91 1 1.55 0.71 0.57 1.74 0.71 0.96 0.17 0.99 0.09 1.99 0.06h2 2l3-0.04 0.99-0.07 1.9-0.32 1.68-0.75 1.25-1.25 0.75-1.68 0.32-1.9 0.1-1.99 0.01-5v-15-52l1.58 1.09 0.41 0.43 0.87 0.8 1.5 1.74 3.77 4.94 2.3 3 4.69 6c1.23 1.61 2.42 3.26 3.77 4.77l0.78 0.78 0.79 0.65 1.66 0.74 0.83 0.02 1.46-0.67 0.57-0.65 0.42-0.8 0.29-0.9 0.25-1.94 0.04-1 0.02-2v-4-6l-0.02-3-0.12-1.98-0.17-0.96-0.29-0.91-1-1.55-0.71-0.57-1.75-0.71-0.96-0.17-0.98-0.09-2-0.05-4-0.01h-6-38-7l-3 0.01-1 0.01-1.98 0.13-0.96 0.17-1.74 0.71-0.71 0.57-1 1.55-0.29 0.91-0.17 0.96-0.13 1.98-0.02 2v6zm179-28l-0.43 1.67-0.09 0.49-0.3 1.89-0.09 0.98-0.05 0.98-0.04 3.99v5 21 15 4l0.04 3 0.14 2c0.09 1.01 0.28 2.01 0.49 3l0.49 2c0.39 1.36 0.8 2.71 1.37 4 1.29 2.89 3.15 5.55 5.57 7.61 1.18 1.01 2.51 1.87 3.9 2.57 0.99 0.49 1.98 0.97 3 1.36q2.46 0.93 5 1.56 1.49 0.37 3 0.62l4 0.55c1.67 0.24 3.32 0.53 5 0.64q1.5 0.09 3 0.08c1.34 0 2.67-0.03 4-0.16q1.51-0.16 3-0.44 1.51-0.28 3-0.62c2.05-0.49 4.09-1.07 6-1.96 1.78-0.82 3.44-1.84 4.9-3.15l1.71-1.75 0.76-0.95 1.27-1.96 0.54-1 0.94-2c0.58-1.28 1.03-2.63 1.35-4 0.47-1.97 0.55-4 0.82-6l0.43-3 0.19-2c0.12-1.66 0.09-3.33 0.09-5v-8-21-8-3l-0.01-2-0.03-1-0.18-1.98-0.21-0.96-0.31-0.91-1-1.55-0.69-0.57-1.68-0.71-0.93-0.17-1.96-0.13-1-0.01-2.99-0.01h-7.01v22l0.01 6c0.03 2.02 0.03 4.07 0.72 6 0.79 2.22 2.27 4.12 3.65 6 1.5 2.03 3.06 4.02 4.62 6l2.32 3 0.71 1 1.15 2 0.4 1 0.27 1 0.15 1 0.06 1q0.03 2.01-0.14 4c-0.09 1.01-0.2 2.02-0.44 3l-0.24 1-0.62 2-0.81 2-1.03 2c-0.59 1.06-1.36 2.02-2.12 2.96l-1.75 1.83-0.95 0.82-0.97 0.74-0.99 0.66-1 0.57-2 0.94q-1.93 0.79-4 1.15c-1.32 0.23-2.66 0.29-4 0.32q-2 0.04-4-0.1l-1-0.12-1.98-0.51-0.97-0.44-1.83-1.25c-1.16-1-2.06-2.25-2.77-3.58-0.51-0.95-0.89-1.97-1.22-2.99-0.53-1.62-0.87-3.31-1.05-5-0.22-1.99-0.15-4-0.35-6l-0.4-3q-0.22-1.49-0.34-3c-0.11-1.66-0.08-3.33-0.09-5v-7-22-8-3-2l-0.02-0.99-0.04-0.99-0.25-1.87-0.71-1.55-0.58-0.57c-0.7-0.56-1.59-0.75-2.46-0.88l-1.94-0.13-2-0.02h-5zm-56 1.52c2.93-0.16 5.72 1.15 7.99 2.9l1.91 1.69 0.89 0.94 0.82 0.97 1.43 1.98 0.61 1 1.09 2 0.5 1q1.02 1.97 1.89 4 0.62 1.48 1.12 3c0.43 1.32 0.78 2.66 1.12 4 0.51 1.98 1.04 3.98 1.33 6 0.24 1.66 0.27 3.33 0.39 5 0.11 1.67 0.34 3.33 0.34 5 0 1.67-0.23 3.34-0.34 5l-0.17 3-0.21 2q-0.2 1.51-0.51 3-0.31 1.51-0.67 3-0.54 2.02-1.2 4c-0.55 1.68-1.1 3.37-1.79 5l-0.91 2q-0.79 1.53-1.7 3-0.94 1.51-1.97 2.96l-0.72 0.95-0.75 0.91-1.67 1.65c-0.85 0.78-1.84 1.38-2.83 1.96l-1.99 0.87-1 0.28-2 0.27-2-0.09-1-0.18-1.98-0.67-0.98-0.48-1.86-1.23-1.71-1.53-1.57-1.76-1.45-1.92-1.33-1.99c-0.61-0.96-1.12-1.98-1.62-3l-0.88-2-0.8-2q-0.59-1.48-1.07-3-0.76-2.48-1.37-5c-0.49-1.98-0.99-3.96-1.2-6-0.15-1.33-0.16-2.66-0.17-4l-0.01-5 0.01-4c0.01-1.33 0.03-2.67 0.16-4q0.22-2.01 0.64-4 0.3-1.51 0.67-3 0.53-2.02 1.19-4c0.67-2.02 1.36-4.05 2.21-6q0.89-2.05 2-4 0.88-1.55 1.91-2.99c1.23-1.7 2.61-3.29 4.25-4.59 1.2-0.95 2.53-1.73 3.96-2.26 0.97-0.35 1.98-0.59 3-0.64zm-170 15.48l0.66 1.67 0.24 0.49 0.45 1 0.43 0.89 1.36 2.95 1.72 4 2.28 5 1.72 4 1.84 4 1.3 3 1.31 3 1.38 3 0.85 1.98 0.67 1.86 0.44 1.49 0.35 1.67h-35l0.36-1.67 0.44-1.49 0.67-1.86 0.84-1.98 1.39-3 2.16-5 1.84-4 0.88-2 1.73-4 1.39-3 0.88-2 1.73-3.99 0.94-1.95 0.94-1.74 0.56-0.8 0.24-0.43z"/>
	</g>
</svg>