<?xml version="1.0" standalone="yes"?>
<svg xmlns="http://www.w3.org/2000/svg" width="486" height="148">
<path style="fill:#040404; stroke:none;" d="M23 26L23.2292 27.6713L23.3827 28.159L23.6497 29.1605L24.4128 31.0247C24.8725 32.0422 25.4401 33.0134 25.9606 34L26.9259 36L27.5818 38L27.7755 39L27.892 40C27.9977 40.9927 27.9864 42.0032 27.9961 43L28 47L28 58L28 94L28 105L28.0147 109.998L28.0903 111.975L28.1782 112.955L28.4784 114.841L28.5679 115.329L29 117L51 117L51.2654 115.329L51.2971 114.841L51.3534 113.84L51.1042 111.975C50.6194 110.14 49.4928 108.583 48.5 107L47.2276 105L46.0031 103L43 98L38.2006 90C37.0165 88.0158 35.8479 86.0249 34.7346 84L33.6836 82L33.2137 81C32.8103 80.0364 32.4342 79.0386 32.2747 78L32.1327 77L32.0548 76L32.0008 73L32 68L32 44L33.2577 45.6713L33.5718 46.159L34.2531 47.1605L36.0509 50.0046L38.5764 54L41.0502 58L43.5764 62L46.0502 66L48.5764 70L50.4236 73L53.5764 78L55.4236 81L57.9498 85L60.4236 89L62.3194 91.9992L63.591 93.9807L64.2323 94.9406L65.6049 96.6628L66.3634 97.338L67.9992 98.0787L68.8302 98.0787L69.6258 97.8241L70.3696 97.338L71.6759 95.8472L72.2654 94.9406L73.4205 92.9954L76.8495 87L79.6914 82L82.3086 77L85.1397 72L87.3056 68L88.4244 66L90.6944 62L92.8603 58L95.6759 53.0046C96.1716 52.0785 96.6082 51.1242 97.0247 50.1605L97.5741 48.6713L98 47L98.5849 48.6713L98.642 49.159L98.8395 50.1605L98.966 52.0247L99 57L99 66L99 97L99 106L99.0147 109.998L99.0903 111.975L99.2894 113.84L99.4784 114.841L100 117L125 117L125.432 115.329L125.522 114.841L125.822 112.955L125.96 110.995L125.999 108L126 104L126 92L126 48L126 38L125.999 35L125.985 33.0008L125.891 31.0154L125.772 30.0448L125.262 28.2392L124.297 26.7963L123.656 26.2739L122.177 25.662L121.38 25.5494L120.56 25.5332L118.829 25.6713L117.91 25.7677L116.961 25.8519C115.971 25.9068 114.991 25.9453 113.999 25.9113L111.004 25.7647L110.015 25.7685L109.043 25.858L107.21 26.4074L105.61 27.5285L104.904 28.2824L103.619 30.0548C102.989 31.0085 102.424 32.0069 101.861 33.0008L99.6944 37L96.8603 42L94.1397 47L91.3086 52L89.7446 55L88.1389 58L85.8603 62L83.1427 66.9954L81.527 69.8395L81.0077 70.841L80.7292 71.3287L80 73L78.9591 71.3287L78.6782 70.841L77.537 68.9552L74.4236 64L72.5764 61L70.0502 57L66.9468 52L63.0532 46L59.3079 40L56.6921 36L54.8071 33.0008C53.9842 31.6956 53.2096 30.3346 52.2145 29.1481C51.52 28.3201 50.7607 27.568 49.8148 27.0278L47.9599 26.3179L46.9853 26.1481L44.9992 26.0193L44 26.0046L41 26L37 25.9992C35.6659 25.9951 34.3325 25.9898 33 25.9144C31.3403 25.8204 29.6895 25.5695 28.0247 25.571C27.0625 25.5718 26.115 25.6684 25.159 25.7639L24.6713 25.8326L23 26M157 26L157 28L199 28L199 26L157 26M328 34.439C326.996 34.5958 325.994 34.7961 325 35.0039C323.663 35.2833 322.314 35.5438 321 35.9205L319 36.5201C317.991 36.8656 316.988 37.2229 316 37.6265C314.27 38.3336 312.578 39.1257 311 40.1327C308.101 41.9824 305.528 44.3681 303.329 47.0039C301.322 49.4089 299.661 52.0985 298.475 55C297.425 57.5689 296.786 60.2928 296.211 63C295.789 64.9821 295.372 66.9815 295.171 69C295.038 70.3297 295.016 71.6648 295.004 73L295 77C295.001 79.3305 294.938 81.6777 295.171 84C295.339 85.6812 295.657 87.3499 296.015 89C296.837 92.8003 298.064 96.5198 299.81 100C301.042 102.456 302.486 104.856 304.329 106.907C305.156 107.828 306.056 108.715 307.04 109.471L309.004 110.895L311 112.123C312.313 112.861 313.64 113.567 315 114.215C315.984 114.684 316.978 115.153 318 115.536L320 116.251L321 116.56C322.322 116.934 323.648 117.286 325 117.536L327 117.841L330 118.155L334 118.715C334.999 118.838 335.994 118.917 337 118.961L339 118.995L342 118.961L344 118.83C345.341 118.721 346.667 118.455 348 118.282C349.663 118.065 351.342 117.962 353 117.704C355.034 117.386 357.031 116.872 359 116.279C360.352 115.871 361.682 115.414 363 114.906L365 114.008L367 112.906L368.999 111.637C370.012 110.959 371.016 110.256 371.96 109.482C372.928 108.689 373.835 107.839 374.671 106.907C376.519 104.847 377.941 102.444 379.215 100C380.058 98.3805 380.842 96.7231 381.452 95C382.143 93.0498 382.584 91.0235 382.996 89C383.334 87.3454 383.661 85.6819 383.829 84C383.962 82.6702 383.984 81.3352 383.996 80L384 76L383.996 72C383.984 70.6648 383.963 69.3298 383.829 68C383.661 66.3188 383.343 64.6501 382.985 63C382.767 61.9933 382.532 60.9919 382.254 60C381.97 58.9885 381.641 57.9934 381.3 57C380.832 55.6355 380.273 54.288 379.623 53C378.734 51.2387 377.677 49.5619 376.471 48.0008L374.815 46.0147L373.907 45.0401L372.96 44.0934L370.996 42.3287L369 40.7894L368 40.108L367 39.4792L365 38.3781C361.852 36.7992 358.427 35.9393 355 35.2106C353.018 34.7892 351.019 34.3723 349 34.1705C347.338 34.0043 345.668 34.0114 344 34.0008L340 34L335 34.0008C333.666 34.0072 332.331 33.9995 331 34.0895C329.993 34.1577 328.997 34.2833 328 34.439M137 117L138.671 117.432L139.159 117.522L141.045 117.822L142.025 117.91L144.002 117.985L149 118L153 117.996L154.996 117.956L156.955 117.772L157.887 117.566L158.756 117.258L159.523 116.821L160.611 115.566L160.879 114.772C161.084 113.848 160.879 112.878 160.647 111.985L159.969 109.999L159.138 108L156.861 103.002C156.156 101.4 155.503 99.778 154.84 98.159L154.631 97.6713L154 96L189 96L189.228 97.6713L189.638 99.1605L190.352 101.025L192.22 105C192.844 106.321 193.418 107.66 194 109L195.324 111.985L195.824 112.956L196.363 113.891L196.969 114.772L197.638 115.566L199.213 116.821C200.371 117.504 201.685 117.757 203.004 117.891C204.328 118.025 205.671 117.992 207 117.999L211 118L214.995 117.96L216.955 117.822L218.841 117.522L219.329 117.432L221 117L220.954 115.329L220.896 114.841L220.787 113.84L220.363 111.975C220.063 110.951 219.64 109.972 219.204 109L217.309 105L215.14 100L212.86 95L210.691 90L208.309 85L206.14 80L203.86 75L202.14 71L199.86 66L198.14 62L195.86 57L194.576 54L193.231 51L191.424 47L190.139 44L189.215 42.0008L188.726 41.0046C187.745 39.1292 186.672 37.1402 184.787 36.0278L182.957 35.3179L181.985 35.1481L180.996 35.0594L179.999 35.0231L179 35.0201L177.004 35.1088L175.043 35.4336L174.105 35.7423L173.214 36.179L171.649 37.4336L170.414 39.1088L169.44 41.0154L167.691 45L165.309 50L163.576 54L162.694 56L161.306 59L159.14 64L157.306 68L154.691 74L152.309 79L150.14 84L147.86 89L145.694 94L143.86 98L141.691 103C140.335 105.962 138.708 108.833 137.789 111.975L137.329 113.84L137.183 114.841L137.102 115.329L137 117M216 63L218.155 63.2068L219.146 63.1065L220.934 62.3063L222.701 60.8372L223.536 59.9375L225.112 57.9954L227.374 55L230.424 51L233.576 47L235.883 44.0046L237.439 42.0586L239.013 40.321L240.37 39.0864L242 38L242 97L242 106L242.001 109L242.019 110.999L242.148 112.981L242.318 113.941L242.603 114.852L243.603 116.397L244.318 116.972L246.059 117.682L247.019 117.852L248.005 117.941L250 117.995L252 118L254 117.999L256.996 117.956L257.985 117.891L259.891 117.566L261.566 116.821L262.821 115.566L263.566 113.891L263.891 111.985L263.985 109.999L264 105L264 90L264 38L265.573 39.0864L265.988 39.517L266.86 40.321L268.359 42.0586L272.13 47L274.424 50L279.116 55.9992C280.349 57.6071 281.534 59.2559 282.888 60.767L283.665 61.5471L284.459 62.1991L286.115 62.9398L286.942 62.963L288.411 62.2878L288.976 61.6381L289.397 60.8364L289.682 59.9375L289.941 57.9954L289.981 56.9992L289.999 55L290 51L290 45L289.981 42.0008L289.852 40.0193L289.682 39.0586L289.397 38.1481L288.397 36.6034L287.682 36.0278L285.941 35.3179L284.981 35.1481L283.995 35.0586L282 35.0046L278 35L272 35L234 35L227 35L224 35.0046L223.001 35.0193L221.019 35.1481L220.059 35.3179L218.318 36.0278L217.603 36.6034L216.603 38.1481L216.318 39.0586L216.148 40.0193L216.019 42.0008L216.001 44L216 50L216 63M395 35L394.568 36.6713L394.478 37.159L394.178 39.0448L394.09 40.0247L394.04 41.0046L394 45L394 50L394 71L394 86L394.001 90L394.039 93L394.174 95C394.263 96.0087 394.458 97.0112 394.669 98L395.16 100C395.548 101.358 395.953 102.707 396.529 104C397.815 106.887 399.681 109.553 402.093 111.61C403.277 112.619 404.609 113.48 406.001 114.175C406.982 114.665 407.972 115.148 409 115.535C410.638 116.153 412.298 116.684 414 117.1C414.993 117.343 415.992 117.548 417 117.715L421 118.271C422.666 118.509 424.319 118.796 426 118.91C426.998 118.978 428 118.992 429 118.992C430.334 118.992 431.671 118.962 433 118.829C434.007 118.729 435.005 118.566 436 118.384C437.004 118.201 438.007 117.999 439 117.764C441.044 117.28 443.089 116.696 445 115.811C446.772 114.99 448.437 113.965 449.895 112.66L451.61 110.906L452.362 109.96L453.637 107.996L454.175 106.999L455.12 105C455.697 103.721 456.151 102.366 456.471 101C456.933 99.0319 457.021 96.999 457.282 95L457.715 92L457.91 90C458.024 88.3372 457.997 86.6656 458 85L458 77L458 56L458 48L457.999 45L457.985 43L457.956 42.0008L457.772 40.0193L457.566 39.0586L457.258 38.1481L456.258 36.6034L455.566 36.0278L453.891 35.3179L452.956 35.1481L450.996 35.0193L449.999 35.0046L447.002 35L440 35L440 57L440.004 63C440.032 65.0216 440.038 67.0701 440.728 69C441.521 71.2205 442.996 73.1218 444.379 75C445.875 77.0334 447.441 79.0149 449 81L451.316 84L452.022 85L453.177 87L453.575 88L453.848 89L453.995 90L454.057 91C454.069 92.3314 454.039 93.6734 453.917 95C453.826 96.0037 453.72 97.0181 453.481 98L453.236 99L452.612 101L451.811 103L450.775 104.999C450.183 106.062 449.42 107.014 448.66 107.957L446.906 109.786L445.96 110.606L444.985 111.351L443.996 112.005L442.999 112.583L441 113.517C439.714 114.043 438.369 114.434 437 114.671C435.677 114.901 434.339 114.957 433 114.985C431.665 115.012 430.332 114.983 429 114.891L428.001 114.772L426.015 114.258L425.043 113.821L423.214 112.566C422.061 111.572 421.156 110.321 420.442 108.985C419.934 108.034 419.557 107.023 419.225 106C418.697 104.379 418.36 102.692 418.174 101C417.954 99.0072 418.023 96.9954 417.83 95L417.424 92C417.285 91.001 417.158 90.0068 417.09 89C416.976 87.3372 417.003 85.6656 417 84L417 77L417 55L417 47L417 44L416.995 42.0008L416.981 41.0046L416.941 40.0193L416.682 38.1481L415.972 36.6034L415.397 36.0278C414.695 35.4722 413.802 35.2787 412.941 35.1481L410.995 35.0193L409 35.0008L404 35L395 35M339 36.5147C341.922 36.3568 344.72 37.6675 346.985 39.419L348.895 41.108L349.787 42.044L350.61 43.0154L352.034 45.0008L352.648 46L353.737 48L354.24 49C354.911 50.3101 355.553 51.643 356.124 53C356.539 53.9865 356.918 54.9824 357.251 56C357.681 57.317 358.026 58.6589 358.37 60C358.88 61.9803 359.407 63.9737 359.7 66C359.94 67.6596 359.967 69.33 360.082 71C360.196 72.6656 360.429 74.3283 360.429 76C360.429 77.6717 360.196 79.3344 360.082 81L359.914 84L359.711 86C359.578 87.0047 359.398 88.0079 359.192 89C358.984 90.0038 358.775 91.0064 358.522 92C358.177 93.3494 357.761 94.6765 357.329 96C356.78 97.6801 356.224 99.371 355.535 101L354.623 103C354.091 104.021 353.536 105.019 352.931 105.999C352.308 107.01 351.642 107.99 350.957 108.96L350.239 109.907L349.482 110.815L347.816 112.467C346.969 113.249 345.973 113.846 344.985 114.427L342.999 115.296L342 115.577L340 115.848L338 115.76L337.001 115.577L335.015 114.91L334.039 114.427L332.174 113.196L330.465 111.671L328.9 109.907L327.443 107.985L326.118 105.999C325.502 105.039 325 104.019 324.493 103L323.616 101L322.815 99C322.435 98.0096 322.06 97.0139 321.746 96C321.235 94.3475 320.793 92.6783 320.375 91C319.882 89.0193 319.391 87.0336 319.174 85C319.031 83.6723 319.012 82.3339 319.004 81L319 76L319.004 72C319.016 70.6648 319.037 69.3298 319.171 68C319.305 66.6576 319.534 65.3205 319.808 64C320.016 62.9962 320.225 61.9936 320.478 61C320.823 59.6505 321.24 58.3235 321.671 57C322.332 54.9756 323.023 52.9526 323.876 51C324.473 49.6324 325.137 48.2951 325.88 47C326.468 45.9734 327.093 44.9621 327.789 44.0039C329.016 42.3132 330.394 40.7179 332.04 39.419C333.239 38.4731 334.564 37.6889 336 37.1628C336.962 36.8103 337.974 36.5701 339 36.5147M169 52L169.66 53.6713L169.9 54.159L170.346 55.1605L170.775 56.0448L172.14 59.0015L173.86 63L176.14 68L177.86 72L179.694 76L181 79L182.306 82L183.691 84.9985L184.532 86.9753L185.206 88.8395L185.643 90.3287L186 92L151 92L151.357 90.3287L151.794 88.8395L152.468 86.9753L153.309 84.9985L154.694 82L156.86 77L158.694 73L159.576 71L161.306 67L162.694 64L163.576 62L165.308 58.0046L166.248 56.0586L167.189 54.321L167.742 53.517L167.989 53.0864L169 52z"/>
</svg>
